<svg width="1003" height="1024" viewBox="0 0 1003 1024" fill="none" xmlns="http://www.w3.org/2000/svg">
<g filter="url(#filter0_d)">
<path d="M119 511.5C119 193.108 377.108 -65 695.5 -65H1440V1088H695.5C377.108 1088 119 829.892 119 511.5V511.5Z" fill="#00C0B5"/>
</g>
<g style="mix-blend-mode:overlay" filter="url(#filter1_f)">
<path d="M140 512.5C140 194.108 398.108 -64 716.5 -64L1461 -64V1089L716.5 1089C398.108 1089 140 830.892 140 512.5V512.5Z" fill="url(#paint0_linear)"/>
</g>
<g filter="url(#filter2_d)">
<path d="M332.006 639.454V663H318.236V596.172H344.307C349.325 596.172 353.731 597.09 357.525 598.926C361.35 600.762 364.288 603.378 366.338 606.774C368.388 610.14 369.413 613.98 369.413 618.295C369.413 624.843 367.164 630.014 362.666 633.809C358.199 637.572 352.002 639.454 344.077 639.454H332.006ZM332.006 628.301H344.307C347.948 628.301 350.717 627.444 352.614 625.73C354.542 624.017 355.506 621.569 355.506 618.387C355.506 615.113 354.542 612.466 352.614 610.446C350.687 608.427 348.024 607.386 344.628 607.325H332.006V628.301Z" fill="white"/>
<path d="M391.985 618.754C395.504 614.531 399.926 612.42 405.25 612.42C416.021 612.42 421.483 618.677 421.636 631.192V663H408.371V631.56C408.371 628.714 407.759 626.618 406.535 625.271C405.311 623.895 403.276 623.206 400.431 623.206C396.545 623.206 393.729 624.705 391.985 627.704V663H378.721V592.5H391.985V618.754Z" fill="white"/>
<path d="M451.185 644.228L460.364 613.338H474.593L454.627 670.711L453.525 673.327C450.557 679.814 445.661 683.058 438.838 683.058C436.91 683.058 434.952 682.767 432.963 682.186V672.134L434.982 672.18C437.492 672.18 439.358 671.797 440.582 671.032C441.837 670.267 442.816 668.997 443.52 667.223L445.08 663.138L427.685 613.338H441.959L451.185 644.228Z" fill="white"/>
<path d="M507.722 649.276C507.722 647.655 506.911 646.385 505.289 645.467C503.698 644.518 501.128 643.677 497.578 642.942C485.767 640.464 479.861 635.446 479.861 627.888C479.861 623.481 481.682 619.81 485.323 616.872C488.995 613.904 493.784 612.42 499.689 612.42C505.993 612.42 511.026 613.904 514.79 616.872C518.584 619.84 520.481 623.696 520.481 628.438H507.217C507.217 626.541 506.605 624.981 505.381 623.757C504.157 622.502 502.244 621.875 499.644 621.875C497.41 621.875 495.681 622.38 494.457 623.39C493.233 624.399 492.621 625.685 492.621 627.245C492.621 628.714 493.31 629.907 494.687 630.825C496.094 631.713 498.45 632.493 501.755 633.166C505.06 633.809 507.844 634.543 510.108 635.369C517.116 637.939 520.619 642.392 520.619 648.726C520.619 653.254 518.676 656.926 514.79 659.741C510.904 662.526 505.886 663.918 499.735 663.918C495.574 663.918 491.871 663.184 488.628 661.715C485.415 660.215 482.891 658.181 481.055 655.61C479.219 653.009 478.301 650.21 478.301 647.211H490.877C490.999 649.567 491.871 651.372 493.493 652.627C495.115 653.882 497.287 654.509 500.011 654.509C502.55 654.509 504.463 654.035 505.748 653.086C507.064 652.107 507.722 650.837 507.722 649.276Z" fill="white"/>
<path d="M544.201 663H530.891V613.338H544.201V663ZM530.11 600.486C530.11 598.497 530.768 596.86 532.084 595.575C533.43 594.29 535.251 593.647 537.546 593.647C539.81 593.647 541.616 594.29 542.962 595.575C544.308 596.86 544.981 598.497 544.981 600.486C544.981 602.506 544.293 604.158 542.916 605.443C541.57 606.729 539.78 607.371 537.546 607.371C535.312 607.371 533.507 606.729 532.13 605.443C530.784 604.158 530.11 602.506 530.11 600.486Z" fill="white"/>
<path d="M576.825 653.224C579.273 653.224 581.262 652.55 582.792 651.204C584.322 649.858 585.118 648.068 585.179 645.834H597.617C597.587 649.2 596.669 652.29 594.863 655.105C593.058 657.89 590.579 660.062 587.428 661.623C584.307 663.153 580.849 663.918 577.055 663.918C569.956 663.918 564.356 661.669 560.256 657.171C556.156 652.642 554.105 646.4 554.105 638.444V637.572C554.105 629.923 556.14 623.818 560.21 619.259C564.28 614.7 569.864 612.42 576.963 612.42C583.174 612.42 588.147 614.195 591.88 617.744C595.644 621.263 597.556 625.96 597.617 631.835H585.179C585.118 629.265 584.322 627.184 582.792 625.593C581.262 623.971 579.243 623.16 576.733 623.16C573.643 623.16 571.302 624.292 569.711 626.557C568.15 628.79 567.37 632.432 567.37 637.48V638.857C567.37 643.967 568.15 647.639 569.711 649.873C571.271 652.107 573.643 653.224 576.825 653.224Z" fill="white"/>
<path d="M634.969 663C634.357 661.807 633.913 660.323 633.638 658.548C630.425 662.128 626.248 663.918 621.107 663.918C616.242 663.918 612.203 662.51 608.99 659.695C605.808 656.88 604.217 653.331 604.217 649.047C604.217 643.784 606.16 639.745 610.046 636.93C613.963 634.115 619.608 632.692 626.982 632.661H633.087V629.815C633.087 627.521 632.49 625.685 631.297 624.308C630.134 622.931 628.283 622.242 625.743 622.242C623.509 622.242 621.75 622.778 620.465 623.849C619.21 624.92 618.583 626.388 618.583 628.255H605.318C605.318 625.379 606.206 622.716 607.98 620.269C609.755 617.821 612.264 615.908 615.508 614.531C618.751 613.124 622.393 612.42 626.432 612.42C632.551 612.42 637.401 613.965 640.981 617.056C644.592 620.116 646.397 624.43 646.397 629.999V651.525C646.428 656.238 647.086 659.802 648.371 662.22V663H634.969ZM623.999 653.774C625.957 653.774 627.763 653.346 629.415 652.489C631.067 651.602 632.291 650.424 633.087 648.955V640.418H628.13C621.49 640.418 617.956 642.713 617.527 647.303L617.481 648.083C617.481 649.735 618.063 651.097 619.226 652.168C620.388 653.239 621.979 653.774 623.999 653.774Z" fill="white"/>
<path d="M671.586 663H658.275V592.5H671.586V663Z" fill="white"/>
<path d="M734.86 649.276C734.86 647.655 734.049 646.385 732.428 645.467C730.837 644.518 728.266 643.677 724.717 642.942C712.906 640.464 707 635.446 707 627.888C707 623.481 708.821 619.81 712.462 616.872C716.134 613.904 720.923 612.42 726.828 612.42C733.132 612.42 738.165 613.904 741.929 616.872C745.723 619.84 747.62 623.696 747.62 628.438H734.355C734.355 626.541 733.743 624.981 732.52 623.757C731.296 622.502 729.383 621.875 726.782 621.875C724.549 621.875 722.82 622.38 721.596 623.39C720.372 624.399 719.76 625.685 719.76 627.245C719.76 628.714 720.448 629.907 721.825 630.825C723.233 631.713 725.589 632.493 728.894 633.166C732.198 633.809 734.983 634.543 737.247 635.369C744.254 637.939 747.758 642.392 747.758 648.726C747.758 653.254 745.815 656.926 741.929 659.741C738.043 662.526 733.024 663.918 726.874 663.918C722.713 663.918 719.01 663.184 715.767 661.715C712.554 660.215 710.029 658.181 708.193 655.61C706.357 653.009 705.439 650.21 705.439 647.211H718.016C718.138 649.567 719.01 651.372 720.632 652.627C722.254 653.882 724.426 654.509 727.149 654.509C729.689 654.509 731.602 654.035 732.887 653.086C734.202 652.107 734.86 650.837 734.86 649.276Z" fill="white"/>
<path d="M773.222 601.129V613.338H781.713V623.068H773.222V647.854C773.222 649.689 773.574 651.005 774.277 651.801C774.981 652.596 776.327 652.994 778.316 652.994C779.785 652.994 781.086 652.887 782.218 652.673V662.725C779.617 663.52 776.939 663.918 774.186 663.918C764.883 663.918 760.141 659.221 759.957 649.827V623.068H752.705V613.338H759.957V601.129H773.222Z" fill="white"/>
<path d="M786.66 637.71C786.66 632.784 787.609 628.393 789.506 624.537C791.403 620.682 794.126 617.698 797.676 615.587C801.256 613.476 805.402 612.42 810.114 612.42C816.815 612.42 822.277 614.47 826.5 618.57C830.753 622.671 833.125 628.24 833.614 635.277L833.706 638.674C833.706 646.293 831.579 652.413 827.326 657.033C823.073 661.623 817.366 663.918 810.206 663.918C803.046 663.918 797.324 661.623 793.04 657.033C788.787 652.443 786.66 646.201 786.66 638.307V637.71ZM799.925 638.674C799.925 643.386 800.812 646.997 802.587 649.506C804.362 651.984 806.901 653.224 810.206 653.224C813.419 653.224 815.928 652 817.733 649.552C819.539 647.073 820.441 643.126 820.441 637.71C820.441 633.09 819.539 629.509 817.733 626.97C815.928 624.43 813.388 623.16 810.114 623.16C806.871 623.16 804.362 624.43 802.587 626.97C800.812 629.479 799.925 633.38 799.925 638.674Z" fill="white"/>
<path d="M870.782 625.776C868.977 625.532 867.386 625.409 866.009 625.409C860.991 625.409 857.701 627.107 856.141 630.504V663H842.876V613.338H855.406L855.773 619.259C858.436 614.7 862.123 612.42 866.835 612.42C868.304 612.42 869.681 612.619 870.966 613.017L870.782 625.776Z" fill="white"/>
<path d="M900.147 663.918C892.865 663.918 886.929 661.684 882.339 657.217C877.78 652.749 875.5 646.798 875.5 639.362V638.077C875.5 633.09 876.464 628.637 878.392 624.721C880.319 620.773 883.043 617.744 886.562 615.633C890.111 613.491 894.15 612.42 898.679 612.42C905.472 612.42 910.811 614.562 914.697 618.846C918.614 623.13 920.572 629.203 920.572 637.067V642.483H888.948C889.377 645.727 890.662 648.328 892.804 650.286C894.976 652.244 897.715 653.224 901.02 653.224C906.13 653.224 910.123 651.372 912.999 647.67L919.517 654.968C917.528 657.783 914.835 659.986 911.438 661.577C908.042 663.138 904.278 663.918 900.147 663.918ZM898.633 623.16C896.001 623.16 893.859 624.048 892.207 625.822C890.585 627.597 889.545 630.137 889.086 633.441H907.537V632.386C907.476 629.448 906.68 627.184 905.15 625.593C903.62 623.971 901.448 623.16 898.633 623.16Z" fill="white"/>
<path d="M932.588 679.753L925.657 676.127L927.31 673.144C929.36 669.41 930.415 665.693 930.477 661.99V651.709H941.676L941.63 660.889C941.599 664.285 940.743 667.712 939.06 671.17C937.377 674.628 935.219 677.489 932.588 679.753Z" fill="white"/>
<path d="M684.703 722.71C684.703 717.784 685.652 713.393 687.549 709.537C689.446 705.682 692.169 702.698 695.719 700.587C699.299 698.476 703.445 697.42 708.157 697.42C714.858 697.42 720.32 699.47 724.543 703.57C728.796 707.671 731.168 713.24 731.657 720.277L731.749 723.674C731.749 731.293 729.622 737.413 725.369 742.033C721.116 746.623 715.409 748.918 708.249 748.918C701.089 748.918 695.367 746.623 691.083 742.033C686.83 737.443 684.703 731.201 684.703 723.307V722.71ZM697.968 723.674C697.968 728.386 698.855 731.997 700.63 734.506C702.405 736.984 704.944 738.224 708.249 738.224C711.462 738.224 713.971 737 715.776 734.552C717.582 732.073 718.484 728.126 718.484 722.71C718.484 718.09 717.582 714.509 715.776 711.97C713.971 709.43 711.431 708.16 708.157 708.16C704.914 708.16 702.405 709.43 700.63 711.97C698.855 714.479 697.968 718.38 697.968 723.674Z" fill="white"/>
<path d="M753.128 698.338L753.541 704.075C757.09 699.638 761.849 697.42 767.815 697.42C773.078 697.42 776.995 698.965 779.565 702.056C782.136 705.146 783.451 709.767 783.513 715.917V748H770.248V716.238C770.248 713.423 769.636 711.388 768.412 710.134C767.188 708.849 765.153 708.206 762.308 708.206C758.575 708.206 755.775 709.797 753.908 712.979V748H740.644V698.338H753.128Z" fill="white"/>
<path d="M808.609 748H795.299V677.5H808.609V748Z" fill="white"/>
<path d="M834.578 748H821.268V698.338H834.578V748ZM820.487 685.486C820.487 683.497 821.145 681.86 822.461 680.575C823.807 679.29 825.628 678.647 827.923 678.647C830.187 678.647 831.993 679.29 833.339 680.575C834.685 681.86 835.358 683.497 835.358 685.486C835.358 687.506 834.67 689.158 833.293 690.443C831.947 691.729 830.157 692.371 827.923 692.371C825.689 692.371 823.884 691.729 822.507 690.443C821.16 689.158 820.487 687.506 820.487 685.486Z" fill="white"/>
<path d="M858.757 698.338L859.17 704.075C862.719 699.638 867.478 697.42 873.444 697.42C878.707 697.42 882.624 698.965 885.194 702.056C887.765 705.146 889.08 709.767 889.142 715.917V748H875.877V716.238C875.877 713.423 875.265 711.388 874.041 710.134C872.817 708.849 870.782 708.206 867.937 708.206C864.203 708.206 861.404 709.797 859.537 712.979V748H846.272V698.338H858.757Z" fill="white"/>
<path d="M923.097 748.918C915.814 748.918 909.878 746.684 905.288 742.217C900.729 737.749 898.449 731.798 898.449 724.362V723.077C898.449 718.09 899.413 713.637 901.341 709.721C903.269 705.773 905.992 702.744 909.511 700.633C913.06 698.491 917.099 697.42 921.628 697.42C928.421 697.42 933.76 699.562 937.646 703.846C941.563 708.13 943.521 714.203 943.521 722.067V727.483H911.897C912.326 730.727 913.611 733.328 915.753 735.286C917.925 737.244 920.664 738.224 923.969 738.224C929.079 738.224 933.072 736.372 935.948 732.67L942.466 739.968C940.477 742.783 937.784 744.986 934.388 746.577C930.991 748.138 927.228 748.918 923.097 748.918ZM921.582 708.16C918.951 708.16 916.809 709.048 915.156 710.822C913.535 712.597 912.494 715.137 912.035 718.441H930.486V717.386C930.425 714.448 929.63 712.184 928.1 710.593C926.57 708.971 924.397 708.16 921.582 708.16Z" fill="white"/>
<path d="M535.415 833.918C528.132 833.918 522.196 831.684 517.606 827.217C513.047 822.749 510.768 816.798 510.768 809.362V808.077C510.768 803.09 511.731 798.637 513.659 794.721C515.587 790.773 518.31 787.744 521.829 785.633C525.379 783.491 529.418 782.42 533.946 782.42C540.739 782.42 546.079 784.562 549.965 788.846C553.882 793.13 555.84 799.203 555.84 807.067V812.483H524.216C524.644 815.727 525.929 818.328 528.071 820.286C530.244 822.244 532.982 823.224 536.287 823.224C541.397 823.224 545.39 821.372 548.267 817.67L554.784 824.968C552.795 827.783 550.103 829.986 546.706 831.577C543.31 833.138 539.546 833.918 535.415 833.918ZM533.9 793.16C531.269 793.16 529.127 794.048 527.475 795.822C525.853 797.597 524.812 800.137 524.354 803.441H542.805V802.386C542.743 799.448 541.948 797.184 540.418 795.593C538.888 793.971 536.715 793.16 533.9 793.16Z" fill="white"/>
<path d="M568.039 833V793.068H560.649V783.338H568.039V779.115C568.039 773.546 569.63 769.232 572.812 766.172C576.025 763.081 580.508 761.536 586.261 761.536C588.097 761.536 590.346 761.842 593.008 762.454L592.87 772.735C591.769 772.46 590.422 772.322 588.831 772.322C583.843 772.322 581.35 774.663 581.35 779.345V783.338H597.689V781.043C597.751 774.801 599.663 769.997 603.427 766.631C607.221 763.234 612.561 761.536 619.445 761.536C623.546 761.536 628.579 762.439 634.546 764.244L632.618 775.214C629.619 774.326 627.279 773.76 625.596 773.516C623.943 773.24 622.169 773.103 620.271 773.103C614.09 773.103 611 775.841 611 781.318V783.338H620.776V793.068H611V833H597.689V793.068H581.35V833H568.039ZM640.696 833H627.386V783.338H640.696V833Z" fill="white"/>
<path d="M673.366 823.224C675.814 823.224 677.803 822.55 679.333 821.204C680.863 819.858 681.659 818.068 681.72 815.834H694.158C694.128 819.2 693.21 822.29 691.404 825.105C689.599 827.89 687.12 830.062 683.969 831.623C680.848 833.153 677.39 833.918 673.596 833.918C666.497 833.918 660.897 831.669 656.797 827.171C652.697 822.642 650.646 816.4 650.646 808.444V807.572C650.646 799.923 652.681 793.818 656.751 789.259C660.821 784.7 666.405 782.42 673.504 782.42C679.715 782.42 684.688 784.195 688.421 787.744C692.185 791.263 694.097 795.96 694.158 801.835H681.72C681.659 799.265 680.863 797.184 679.333 795.593C677.803 793.971 675.784 793.16 673.274 793.16C670.184 793.16 667.843 794.292 666.252 796.557C664.691 798.79 663.911 802.432 663.911 807.48V808.857C663.911 813.967 664.691 817.639 666.252 819.873C667.812 822.107 670.184 823.224 673.366 823.224Z" fill="white"/>
<path d="M716.73 833H703.42V783.338H716.73V833ZM702.64 770.486C702.64 768.497 703.298 766.86 704.613 765.575C705.96 764.29 707.78 763.647 710.075 763.647C712.34 763.647 714.145 764.29 715.491 765.575C716.838 766.86 717.511 768.497 717.511 770.486C717.511 772.506 716.822 774.158 715.445 775.443C714.099 776.729 712.309 777.371 710.075 777.371C707.841 777.371 706.036 776.729 704.659 775.443C703.313 774.158 702.64 772.506 702.64 770.486Z" fill="white"/>
<path d="M751.558 833.918C744.275 833.918 738.339 831.684 733.749 827.217C729.19 822.749 726.91 816.798 726.91 809.362V808.077C726.91 803.09 727.874 798.637 729.802 794.721C731.729 790.773 734.453 787.744 737.972 785.633C741.521 783.491 745.56 782.42 750.089 782.42C756.882 782.42 762.221 784.562 766.107 788.846C770.024 793.13 771.982 799.203 771.982 807.067V812.483H740.358C740.787 815.727 742.072 818.328 744.214 820.286C746.386 822.244 749.125 823.224 752.43 823.224C757.54 823.224 761.533 821.372 764.409 817.67L770.927 824.968C768.938 827.783 766.245 829.986 762.849 831.577C759.452 833.138 755.688 833.918 751.558 833.918ZM750.043 793.16C747.411 793.16 745.27 794.048 743.617 795.822C741.995 797.597 740.955 800.137 740.496 803.441H758.947V802.386C758.886 799.448 758.09 797.184 756.561 795.593C755.031 793.971 752.858 793.16 750.043 793.16Z" fill="white"/>
<path d="M792.765 783.338L793.178 789.075C796.727 784.638 801.485 782.42 807.452 782.42C812.715 782.42 816.632 783.965 819.202 787.056C821.772 790.146 823.088 794.767 823.149 800.917V833H809.885V801.238C809.885 798.423 809.273 796.388 808.049 795.134C806.825 793.849 804.79 793.206 801.944 793.206C798.211 793.206 795.411 794.797 793.545 797.979V833H780.28V783.338H792.765Z" fill="white"/>
<path d="M854.901 823.224C857.349 823.224 859.338 822.55 860.868 821.204C862.398 819.858 863.194 818.068 863.255 815.834H875.693C875.663 819.2 874.745 822.29 872.939 825.105C871.134 827.89 868.656 830.062 865.504 831.623C862.383 833.153 858.925 833.918 855.131 833.918C848.032 833.918 842.432 831.669 838.332 827.171C834.232 822.642 832.182 816.4 832.182 808.444V807.572C832.182 799.923 834.216 793.818 838.286 789.259C842.356 784.7 847.94 782.42 855.039 782.42C861.251 782.42 866.223 784.195 869.956 787.744C873.72 791.263 875.632 795.96 875.693 801.835H863.255C863.194 799.265 862.398 797.184 860.868 795.593C859.338 793.971 857.319 793.16 854.81 793.16C851.719 793.16 849.378 794.292 847.787 796.557C846.227 798.79 845.446 802.432 845.446 807.48V808.857C845.446 813.967 846.227 817.639 847.787 819.873C849.348 822.107 851.719 823.224 854.901 823.224Z" fill="white"/>
<path d="M902.81 814.228L911.989 783.338H926.218L906.252 840.711L905.15 843.327C902.182 849.814 897.286 853.058 890.463 853.058C888.535 853.058 886.577 852.767 884.588 852.186V842.134L886.607 842.18C889.117 842.18 890.983 841.797 892.207 841.032C893.462 840.267 894.441 838.997 895.145 837.223L896.705 833.138L879.31 783.338H893.584L902.81 814.228Z" fill="white"/>
<path d="M925.428 826.482C925.428 824.371 926.132 822.658 927.539 821.342C928.977 820.026 930.767 819.368 932.909 819.368C935.082 819.368 936.872 820.026 938.279 821.342C939.717 822.658 940.437 824.371 940.437 826.482C940.437 828.563 939.733 830.261 938.325 831.577C936.918 832.862 935.112 833.505 932.909 833.505C930.737 833.505 928.947 832.862 927.539 831.577C926.132 830.261 925.428 828.563 925.428 826.482Z" fill="white"/>
</g>
<g filter="url(#filter3_d)">
<path d="M258.475 219.115C253.155 219.115 248.053 221.228 244.292 224.989C240.53 228.751 238.417 233.853 238.417 239.173C238.417 244.492 240.53 249.594 244.292 253.355C248.053 257.117 253.155 259.23 258.475 259.23C261.125 259.204 263.754 259.703 266.21 260.699C268.666 261.695 270.901 263.168 272.784 265.033C274.667 266.898 276.162 269.118 277.183 271.564C278.203 274.01 278.728 276.634 278.728 279.284C278.728 281.935 278.203 284.559 277.183 287.005C276.162 289.451 274.667 291.67 272.784 293.535C270.901 295.4 268.666 296.873 266.21 297.869C263.754 298.865 261.125 299.365 258.475 299.338C253.191 299.391 248.141 301.527 244.422 305.282C240.704 309.037 238.619 314.107 238.619 319.392C238.619 324.676 240.704 329.747 244.422 333.503C248.141 337.258 253.191 339.394 258.475 339.446H320.598C323.249 339.42 325.878 339.919 328.334 340.915C330.79 341.911 333.024 343.384 334.908 345.249C336.791 347.114 338.286 349.333 339.306 351.78C340.327 354.226 340.852 356.85 340.852 359.5C340.852 362.15 340.327 364.774 339.306 367.22C338.286 369.666 336.791 371.886 334.908 373.751C333.024 375.616 330.79 377.089 328.334 378.085C325.878 379.081 323.249 379.58 320.598 379.554H258.475C253.155 379.554 248.053 381.667 244.292 385.429C240.53 389.191 238.417 394.292 238.417 399.612C238.417 404.931 240.53 410.033 244.292 413.795C248.053 417.557 253.155 419.67 258.475 419.67H311.13C313.78 419.644 316.409 420.143 318.865 421.139C321.321 422.135 323.555 423.608 325.439 425.473C327.322 427.337 328.817 429.557 329.837 432.003C330.858 434.449 331.383 437.073 331.383 439.723C331.383 442.374 330.858 444.998 329.837 447.444C328.817 449.89 327.322 452.11 325.439 453.975C323.555 455.839 321.321 457.312 318.865 458.308C316.409 459.305 313.78 459.804 311.13 459.777H258.475C253.191 459.83 248.141 461.966 244.422 465.721C240.704 469.476 238.619 474.547 238.619 479.831C238.619 485.116 240.704 490.187 244.422 493.942C248.141 497.697 253.191 499.833 258.475 499.885H510.525C515.809 499.833 520.859 497.697 524.578 493.942C528.296 490.187 530.382 485.116 530.382 479.831C530.382 474.547 528.296 469.476 524.578 465.721C520.859 461.966 515.809 459.83 510.525 459.777C507.875 459.804 505.246 459.305 502.79 458.308C500.334 457.312 498.099 455.839 496.216 453.975C494.333 452.11 492.838 449.89 491.817 447.444C490.797 444.998 490.272 442.374 490.272 439.723C490.272 437.073 490.797 434.449 491.817 432.003C492.838 429.557 494.333 427.337 496.216 425.473C498.099 423.608 500.334 422.135 502.79 421.139C505.246 420.143 507.875 419.644 510.525 419.67C515.845 419.67 520.947 417.557 524.708 413.795C528.47 410.033 530.583 404.931 530.583 399.612C530.583 394.292 528.47 389.191 524.708 385.429C520.947 381.667 515.845 379.554 510.525 379.554H452.678C450.028 379.58 447.398 379.081 444.942 378.085C442.486 377.089 440.252 375.616 438.369 373.751C436.485 371.886 434.99 369.666 433.97 367.22C432.95 364.774 432.424 362.15 432.424 359.5C432.424 356.85 432.95 354.226 433.97 351.78C434.99 349.333 436.485 347.114 438.369 345.249C440.252 343.384 442.486 341.911 444.942 340.915C447.398 339.919 450.028 339.42 452.678 339.446H510.525C515.809 339.394 520.859 337.258 524.578 333.503C528.296 329.747 530.382 324.676 530.382 319.392C530.382 314.107 528.296 309.037 524.578 305.282C520.859 301.527 515.809 299.391 510.525 299.338H368.75C366.1 299.365 363.47 298.865 361.014 297.869C358.558 296.873 356.324 295.4 354.441 293.535C352.557 291.67 351.062 289.451 350.042 287.005C349.022 284.559 348.496 281.935 348.496 279.284C348.496 276.634 349.022 274.01 350.042 271.564C351.062 269.118 352.557 266.898 354.441 265.033C356.324 263.168 358.558 261.695 361.014 260.699C363.47 259.703 366.1 259.204 368.75 259.23H510.525C515.845 259.23 520.947 257.117 524.708 253.355C528.47 249.594 530.583 244.492 530.583 239.173C530.583 233.853 528.47 228.751 524.708 224.989C520.947 221.228 515.845 219.115 510.525 219.115H258.475Z" fill="#000E0B"/>
<path d="M334.375 261.615C332.046 261.614 329.763 262.262 327.782 263.487C325.801 264.711 324.2 266.463 323.16 268.546L299.194 316.525H284.258C283.237 316.523 282.226 316.723 281.282 317.112C280.338 317.501 279.48 318.072 278.757 318.793C278.034 319.514 277.46 320.37 277.068 321.313C276.676 322.255 276.474 323.266 276.473 324.287V424.545C276.479 426.599 277.298 428.568 278.752 430.019L303.83 455.09C305.282 456.543 307.25 457.363 309.305 457.369H459.68C460.702 457.37 461.715 457.169 462.66 456.778C463.605 456.387 464.463 455.813 465.186 455.09L490.256 430.019C491.698 428.563 492.506 426.595 492.504 424.545V324.287C492.501 322.231 491.684 320.259 490.231 318.804C488.777 317.349 486.806 316.53 484.75 316.525H469.814L445.825 268.546C444.786 266.467 443.189 264.717 441.212 263.493C439.236 262.269 436.958 261.619 434.633 261.615H334.375ZM342.129 286.693H426.879L439.434 311.764H329.582L342.129 286.693Z" fill="white"/>
<path d="M384.313 408.471C380.992 408.521 377.828 409.886 375.514 412.267C373.199 414.648 371.924 417.85 371.969 421.17V425.374C371.969 428.698 373.29 431.887 375.641 434.238C377.992 436.589 381.18 437.91 384.505 437.91C387.83 437.91 391.018 436.589 393.369 434.238C395.72 431.887 397.041 428.698 397.041 425.374V421.17C397.064 419.494 396.749 417.83 396.117 416.277C395.485 414.724 394.548 413.314 393.361 412.13C392.174 410.945 390.762 410.012 389.208 409.383C387.653 408.755 385.989 408.445 384.313 408.471Z" fill="#00C0B5"/>
<path d="M384.313 326.445C380.992 326.495 377.828 327.86 375.514 330.241C373.199 332.622 371.924 335.824 371.969 339.144V390.947C371.969 394.271 373.29 397.46 375.641 399.811C377.992 402.162 381.18 403.483 384.505 403.483C387.83 403.483 391.018 402.162 393.369 399.811C395.72 397.46 397.041 394.271 397.041 390.947V339.144C397.064 337.468 396.749 335.804 396.117 334.251C395.485 332.698 394.548 331.288 393.361 330.104C392.174 328.92 390.762 327.986 389.208 327.357C387.653 326.729 385.989 326.419 384.313 326.445V326.445Z" fill="#00C0B5"/>
<path d="M610.781 367.609H577.359L569.766 388H567L592.547 319.75H595.641L621.188 388H618.422L610.781 367.609ZM578.297 365.078H609.844L594.094 322.797L578.297 365.078Z" fill="white"/>
<path d="M635.031 388H632.5V316H635.031V388Z" fill="white"/>
<path d="M670.906 388.938C666.812 388.938 663.047 387.844 659.609 385.656C656.203 383.438 653.531 380.406 651.594 376.562C649.656 372.719 648.688 368.453 648.688 363.766V361.656C648.688 356.969 649.625 352.672 651.5 348.766C653.375 344.859 655.953 341.812 659.234 339.625C662.516 337.438 666.094 336.344 669.969 336.344C675.625 336.344 680.25 338.359 683.844 342.391C687.438 346.422 689.234 351.719 689.234 358.281V360.953H651.219V363.719C651.219 367.844 652.078 371.672 653.797 375.203C655.547 378.703 657.938 381.453 660.969 383.453C664.031 385.453 667.344 386.453 670.906 386.453C674.312 386.453 677.203 385.891 679.578 384.766C681.984 383.609 684.109 381.844 685.953 379.469L687.734 380.734C683.953 386.203 678.344 388.938 670.906 388.938ZM669.969 338.875C665.031 338.875 660.844 340.719 657.406 344.406C653.969 348.062 651.953 352.734 651.359 358.422H686.703V357.812C686.703 354.375 685.969 351.188 684.5 348.25C683.062 345.281 681.062 342.984 678.5 341.359C675.969 339.703 673.125 338.875 669.969 338.875Z" fill="white"/>
<path d="M724.406 339.109L721.125 338.828C716.812 338.828 713.203 340.234 710.297 343.047C707.391 345.828 705.484 349.734 704.578 354.766V388H702.047V337.281H704.578V347.828C705.953 344.297 708.016 341.5 710.766 339.438C713.516 337.375 716.969 336.344 721.125 336.344C722.594 336.344 723.781 336.516 724.688 336.859L724.406 339.109Z" fill="white"/>
<path d="M743.219 323.594V337.281H754.75V339.859H743.219V375.859C743.219 379.453 743.797 382.109 744.953 383.828C746.141 385.547 748.109 386.406 750.859 386.406C752.234 386.406 753.906 386.266 755.875 385.984L756.297 388.375C755.266 388.75 753.5 388.938 751 388.938C747.312 388.938 744.672 387.922 743.078 385.891C741.484 383.828 740.672 380.594 740.641 376.188V339.859H731.266V337.281H740.641V323.594H743.219Z" fill="white"/>
<path d="M770 387.952V316H795.845C805.104 316 812.136 317.697 816.947 321.09C821.789 324.483 824.211 329.409 824.211 335.866C824.211 339.588 823.354 342.768 821.642 345.403C819.928 348.039 817.408 349.983 814.081 351.235C817.836 352.223 820.719 354.068 822.729 356.769C824.739 359.471 825.743 362.765 825.743 366.653C825.743 373.703 823.503 379.007 819.022 382.565C814.574 386.09 807.97 387.886 799.206 387.952H770ZM787.346 357.362V374.609H798.711C801.842 374.609 804.246 373.901 805.926 372.484C807.607 371.034 808.447 369.008 808.447 366.406C808.447 360.41 805.466 357.395 799.503 357.362H787.346ZM787.346 345.996H796.39C800.178 345.963 802.879 345.272 804.493 343.921C806.108 342.57 806.915 340.577 806.915 337.941C806.915 334.91 806.042 332.736 804.296 331.418C802.55 330.067 799.734 329.392 795.845 329.392H787.346V345.996Z" fill="white"/>
<path d="M892.777 316V363.095C892.777 368.432 891.64 373.061 889.367 376.981C887.094 380.868 883.832 383.834 879.583 385.876C875.333 387.919 870.308 388.94 864.51 388.94C855.746 388.94 848.845 386.667 843.804 382.12C838.764 377.574 836.194 371.347 836.095 363.441V316H853.539V363.787C853.737 371.66 857.394 375.597 864.51 375.597C868.101 375.597 870.819 374.609 872.664 372.632C874.509 370.656 875.431 367.443 875.431 362.996V316H892.777Z" fill="white"/>
<path d="M931 347.232L944.244 316H962.973L939.797 362.106V387.952H922.204V362.106L899.076 316H917.707L931 347.232Z" fill="white"/>
</g>
<defs>
<filter id="filter0_d" x="21" y="-129" width="1449" height="1281" filterUnits="userSpaceOnUse" color-interpolation-filters="sRGB">
<feFlood flood-opacity="0" result="BackgroundImageFix"/>
<feColorMatrix in="SourceAlpha" type="matrix" values="0 0 0 0 0 0 0 0 0 0 0 0 0 0 0 0 0 0 127 0"/>
<feOffset dx="-34"/>
<feGaussianBlur stdDeviation="32"/>
<feColorMatrix type="matrix" values="0 0 0 0 0 0 0 0 0 0.752941 0 0 0 0 0.709804 0 0 0 0.42 0"/>
<feBlend mode="normal" in2="BackgroundImageFix" result="effect1_dropShadow"/>
<feBlend mode="normal" in="SourceGraphic" in2="effect1_dropShadow" result="shape"/>
</filter>
<filter id="filter1_f" x="0" y="-204" width="1601" height="1433" filterUnits="userSpaceOnUse" color-interpolation-filters="sRGB">
<feFlood flood-opacity="0" result="BackgroundImageFix"/>
<feBlend mode="normal" in="SourceGraphic" in2="BackgroundImageFix" result="shape"/>
<feGaussianBlur stdDeviation="70" result="effect1_foregroundBlur"/>
</filter>
<filter id="filter2_d" x="213.236" y="567.5" width="765.285" height="400.558" filterUnits="userSpaceOnUse" color-interpolation-filters="sRGB">
<feFlood flood-opacity="0" result="BackgroundImageFix"/>
<feColorMatrix in="SourceAlpha" type="matrix" values="0 0 0 0 0 0 0 0 0 0 0 0 0 0 0 0 0 0 127 0"/>
<feOffset dx="-35" dy="45"/>
<feGaussianBlur stdDeviation="35"/>
<feColorMatrix type="matrix" values="0 0 0 0 0 0 0 0 0 0 0 0 0 0 0 0 0 0 0.25 0"/>
<feBlend mode="normal" in2="BackgroundImageFix" result="effect1_dropShadow"/>
<feBlend mode="normal" in="SourceGraphic" in2="effect1_dropShadow" result="shape"/>
</filter>
<filter id="filter3_d" x="65" y="40" width="1040" height="639" filterUnits="userSpaceOnUse" color-interpolation-filters="sRGB">
<feFlood flood-opacity="0" result="BackgroundImageFix"/>
<feColorMatrix in="SourceAlpha" type="matrix" values="0 0 0 0 0 0 0 0 0 0 0 0 0 0 0 0 0 0 127 0"/>
<feOffset/>
<feGaussianBlur stdDeviation="59.5"/>
<feColorMatrix type="matrix" values="0 0 0 0 0 0 0 0 0 0 0 0 0 0 0 0 0 0 0.48 0"/>
<feBlend mode="normal" in2="BackgroundImageFix" result="effect1_dropShadow"/>
<feBlend mode="normal" in="SourceGraphic" in2="effect1_dropShadow" result="shape"/>
</filter>
<linearGradient id="paint0_linear" x1="1461" y1="1089" x2="58.5" y2="-215.5" gradientUnits="userSpaceOnUse">
<stop stop-color="#C4C4C4"/>
<stop offset="1" stop-color="#C4C4C4" stop-opacity="0"/>
</linearGradient>
</defs>
</svg>
